PathFileType	4	(X/Y/Z)	C:\Users\chris\Documents\GitHub\baseballds\vids\pitch5_Sports2D\pitch5_Sports2D_m_person03.trc
DataRate	CameraRate	NumFrames	NumMarkers	Units	OrigDataRate	OrigDataStartFrame	OrigNumFrames
30	30	10	22	m	30	0	149
Frame#	Time	Hip			RHip			RKnee			RAnkle			RBigToe			RSmallToe			RHeel			LHip			LKnee			LAnkle			LBigToe			LSmallToe			LHeel			Neck			Head			Nose			RShoulder			RElbow			RWrist			LShoulder			LElbow			LWrist		
		X1	Y1	Z1	X2	Y2	Z2	X3	Y3	Z3	X4	Y4	Z4	X5	Y5	Z5	X6	Y6	Z6	X7	Y7	Z7	X8	Y8	Z8	X9	Y9	Z9	X10	Y10	Z10	X11	Y11	Z11	X12	Y12	Z12	X13	Y13	Z13	X14	Y14	Z14	X15	Y15	Z15	X16	Y16	Z16	X17	Y17	Z17	X18	Y18	Z18	X19	Y19	Z19	X20	Y20	Z20	X21	Y21	Z21	X22	Y22	Z22
0	0.0	3.108750283715935	1.4003748356508157	0.0	3.1089698399405026	1.4004461783466966	0.0	3.104236255597863	1.3776109127533098	0.0	3.1087747544542235	1.3522933299408575	0.0	3.0852271174262946	1.351157246860822	0.0	3.088517092743731	1.3481461613782622	0.0	3.115487429974244	1.3407519832412138	0.0	3.108522933695936	1.4004150098264456	0.0	3.119490552863691	1.375657129711808	0.0	3.123925435486076	1.353432577245915	0.0	3.1009382108596895	1.3430628426566735	0.0	3.0944034699754064	1.3456238823359004	0.0	3.1273376298511977	1.344649536336529	0.0	3.096815055039415	1.4393903634144458	0.0	3.0957272241944014	1.4593919315608113	0.0	3.0871229790364128	1.453516340215683	0.0	3.1006209580443094	1.4309988432111707	0.0	3.119321306273747	1.4274168967247283	0.0	3.098005884438875	1.4243443590671276	0.0	3.111986223401516	1.437822837558744	0.0	3.1208039230512656	1.4398371232511362	0.0	3.1072881051537804	1.4189024582147494	0.0
1	0.03333333333333333	3.1093262365076257	1.3996864793570927	0.0	3.1091835903637968	1.399640282114246	0.0	3.1054551914952984	1.3761887040575165	0.0	3.110177330871544	1.35063195195383	0.0	3.0877542960728186	1.348742608718118	0.0	3.0906607617392234	1.3463235222897545	0.0	3.1165607137763787	1.3399718289528142	0.0	3.109473903016791	1.3996603790185935	0.0	3.119449595806234	1.3743961758740075	0.0	3.123910627166854	1.351533917376682	0.0	3.1021088118058118	1.3415320256536376	0.0	3.0965952228415694	1.343915045271968	0.0	3.127394255281543	1.3434570382275415	0.0	3.0983361298403067	1.4392065126233837	0.0	3.0967433761370304	1.4591378139857143	0.0	3.088844763887991	1.4525626507844982	0.0	3.101564315336452	1.4308753687275206	0.0	3.1183638989134574	1.4257649487006898	0.0	3.0995331332614344	1.42075919026889	0.0	3.1123843424612723	1.4371631901508253	0.0	3.1208013000246457	1.4368398110667806	0.0	3.1083049411518853	1.4158725550535016	0.0
2	0.06666666666666667	3.1099015595583643	1.398998647941671	0.0	3.1093968673697616	1.3988347291497907	0.0	3.106674112929015	1.3747671031940836	0.0	3.1115802594851973	1.3489709228300775	0.0	3.0902814627429174	1.3463285177950242	0.0	3.0928042305186003	1.3445013699364639	0.0	3.117633884612275	1.3391921215568225	0.0	3.1104241348782864	1.3989062572532152	0.0	3.119408215162954	1.3731359476070384	0.0	3.1238955619475406	1.349635602724957	0.0	3.1032790357643623	1.3400018235610571	0.0	3.0987867138305707	1.3422069595087036	0.0	3.1274506893100082	1.342265138406391	0.0	3.099857258382579	1.439022801975022	0.0	3.0977601022015557	1.458884088322976	0.0	3.090566883523351	1.4516091751789002	0.0	3.1025078888646607	1.430752074207701	0.0	3.11740611910551	1.424113777039326	0.0	3.101060552153308	1.4171742704292223	0.0	3.1127821971327987	1.4365038000269856	0.0	3.120798614950944	1.4338429559870267	0.0	3.1093218879128934	1.4128427564006107	0.0
3	0.1	3.1104743095529184	1.3983090481459655	0.0	3.1096081762134875	1.398027119476466	0.0	3.1078914243853974	1.3733459164152073	0.0	3.112981904247628	1.3473097128378246	0.0	3.0928046115528893	1.3439160925394964	0.0	3.0949433779959943	1.342679709180404	0.0	3.1187050317274747	1.3384109227865433	0.0	3.1113713128112765	1.398150512346457	0.0	3.119366417183592	1.371876512243733	0.0	3.1238809313695586	1.3477374105013085	0.0	3.1044463521360184	1.3384722090025105	0.0	3.100974300326862	1.340499917229287	0.0	3.1275073065558856	1.3410726191120932	0.0	3.1013767481500287	1.438835188982427	0.0	3.098778370025289	1.4586279663655943	0.0	3.092288597215074	1.4506533676349065	0.0	3.1034492618423304	1.4306251623518256	0.0	3.1164470283083863	1.4224638128406537	0.0	3.1025854504087613	1.4135916153820898	0.0	3.113180136174409	1.4358414941374111	0.0	3.120796535265035	1.4308475820449724	0.0	3.1103381061715503	1.4098136454300576	0.0
4	0.13333333333333333	3.1110450023443996	1.3976139305506095	0.0	3.1098180337522154	1.3972144606503338	0.0	3.1091048873771316	1.371923438848402	0.0	3.114378310270215	1.3456475854147851	0.0	3.0953184064697177	1.341505767742832	0.0	3.097073838534838	1.340857812832183	0.0	3.1197721583647096	1.3376251937648442	0.0	3.1123158041563186	1.397389652651464	0.0	3.119326024550926	1.370615782653168	0.0	3.1238684435894997	1.3458390639263003	0.0	3.1056092578894514	1.336941673599809	0.0	3.1031542663783633	1.3387922471164824	0.0	3.127565205869229	1.339876740838993	0.0	3.102891767597588	1.4386396302019706	0.0	3.099795877945021	1.4583655057265863	0.0	3.0940065860535753	1.449692759846817	0.0	3.104384693806314	1.430490595343639	0.0	3.115488060356586	1.4208133609687181	0.0	3.1041036157887834	1.4100145637029524	0.0	3.1135792957155455	1.4351728510849107	0.0	3.120795916671622	1.427854843306139	0.0	3.111351646399267	1.4067874967009042	0.0
5	0.16666666666666666	3.1116249845027966	1.396917393515642	0.0	3.1100352152294692	1.3964027328184412	0.0	3.1103193761651715	1.3704963332455167	0.0	3.1157714630080853	1.3439845598184388	0.0	3.0978352057262732	1.3390907688923248	0.0	3.0992100907648563	1.3390328620636018	0.0	3.120842091169727	1.3368384892998029	0.0	3.1132708733147068	1.3966273887253462	0.0	3.119290413010673	1.3693484927574149	0.0	3.1238577790789983	1.3439396973848787	0.0	3.1067787526300994	1.335406316593221	0.0	3.105339910767764	1.3370779701852913	0.0	3.1276245920231007	1.3386776223301655	0.0	3.1044068028547325	1.438448995368064	0.0	3.1008041337013523	1.4581033068628795	0.0	3.0957197125606566	1.4487349502711604	0.0	3.1053202036163463	1.430360048547056	0.0	3.1145359670588557	1.419155732464875	0.0	3.1056220311208413	1.4064363249616814	0.0	3.1139803493175786	1.4345071034269683	0.0	3.1207949635778114	1.4248593502511124	0.0	3.1123639086129393	1.4037632610845858	0.0
6	0.2	3.1122330959528717	1.3962462446208963	0.0	3.1102736640424204	1.395618416296562	0.0	3.1115556519153333	1.3690668551431613	0.0	3.117185457281342	1.3423242549287189	0.0	3.1004058531618868	1.3366558312077184	0.0	3.1014019829894335	1.3372030547295153	0.0	3.12193802551446	1.3360729527180042	0.0	3.1142597782009123	1.395888472779665	0.0	3.1192566404271047	1.3680752276737724	0.0	3.12383960998546	1.3420388863082728	0.0	3.107983395683072	1.333866314946486	0.0	3.1075755426428047	1.3353541544799878	0.0	3.1276802459027637	1.3374893494116997	0.0	3.1059449438326707	1.4383082005128738	0.0	3.101798975110974	1.457873931323137	0.0	3.097442964774164	1.447806780549692	0.0	3.1062863530809173	1.4302761618477926	0.0	3.11359606435612	1.417486783339166	0.0	3.1071755495065214	1.40282664910931	0.0	3.1143788089280267	1.4338790754919868	0.0	3.1207859172729226	1.4218447157596577	0.0	3.1133876002531924	1.400727016584199	0.0
7	0.23333333333333334	3.1128468797187105	1.395630221058465	0.0	3.1105148551426907	1.394881033979231	0.0	3.1128278636943607	1.3676564644317566	0.0	3.118655465092266	1.3406735893016202	0.0	3.103062900248727	1.334207017289641	0.0	3.103669402770848	1.3353795911257538	0.0	3.1230687500369734	1.3353523054073022	0.0	3.1152585627014284	1.3952007512129956	0.0	3.119201919867708	1.3668241270247092	0.0	3.1237979669850695	1.3401404644819652	0.0	3.1092207764783053	1.3323420960640033	0.0	3.109876616374653	1.333645993772229	0.0	3.1277212662738667	1.3363380320089342	0.0	3.10752668222124	1.4382363046593143	0.0	3.102815801482903	1.4577051478748173	0.0	3.099210241376319	1.4469202076860175	0.0	3.107309972096134	1.4302597915480624	0.0	3.1126440117876473	1.4158330394063103	0.0	3.108794110250953	1.3991635332374401	0.0	3.114762720318355	1.4333074102678323	0.0	3.1207633062421665	1.4188078773109976	0.0	3.114439437277518	1.3976581906591181	0.0
8	0.26666666666666666	3.1133277081512287	1.394988581614702	0.0	3.1106526094368885	1.394092247739424	0.0	3.114056611901229	1.3662942291430022	0.0	3.120124723617374	1.339027242405297	0.0	3.105607965267003	1.3318338744951639	0.0	3.1057951782374276	1.3335929253136656	0.0	3.124132327422677	1.3346082789897444	0.0	3.1161031845847713	1.3944904152644262	0.0	3.119098277297029	1.3656453847184011	0.0	3.1237503508720565	1.3382539542064231	0.0	3.110340424504368	1.3308714013196257	0.0	3.112045878703822	1.3320161120751872	0.0	3.127753730853672	1.3352010834771613	0.0	3.109072676181485	1.4380399069441065	0.0	3.1039426072522747	1.4574830887679957	0.0	3.1010088634728112	1.4459607798761451	0.0	3.1082855582707998	1.4301325485873422	0.0	3.111606788521298	1.4142658244937312	0.0	3.1103561271475133	1.395560162706987	0.0	3.1151324192073715	1.4326494884048813	0.0	3.120756427759169	1.4158269303026843	0.0	3.1154860059026097	1.3945892482895272	0.0
9	0.3	3.1135286581085477	1.3940170956857192	0.0	3.1105811587042247	1.3929667824574676	0.0	3.115019801714407	1.3649254133715656	0.0	3.121306495285508	1.3373398436211927	0.0	3.107500440458837	1.3296744311748938	0.0	3.1072679154106684	1.3318433315638465	0.0	3.1248915065479492	1.3335909024411672	0.0	3.116606415837171	1.3934759727447394	0.0	3.1190092917262677	1.3644900193565872	0.0	3.1238113405495205	1.3363777487389703	0.0	3.111070693247878	1.329421135292053	0.0	3.1136321639811935	1.3304540295559173	0.0	3.127844779836756	1.3339025421873212	0.0	3.1103285487860566	1.437256705871454	0.0	3.105164668497063	1.4568510616689232	0.0	3.1026417873668493	1.4446514515647573	0.0	3.1088769990408363	1.4294512820258567	0.0	3.1104708995755352	1.4127842737487362	0.0	3.1114792556679647	1.3923425009958221	0.0	3.1155495870598804	1.4315409642703716	0.0	3.1208485114064093	1.4130648930842504	0.0	3.1163788834918584	1.391686518787255	0.0
